<svg width="130" height="48" viewBox="0 0 130 48" fill="none" xmlns="http://www.w3.org/2000/svg">
<g clip-path="url(#clip0_172_708)">
<path d="M37.0361 7.57867H8.94677L8.90497 7.45332C8.74819 6.96235 8.48689 6.51839 8.12631 6.12666L7.94862 5.9334L22.9888 0L38.029 5.93863L37.8513 6.13188C37.4908 6.52361 37.2295 6.96757 37.0727 7.45854L37.0309 7.58389L37.0361 7.57867ZM9.20284 7.2235H36.7748C36.9211 6.81088 37.1354 6.4296 37.4176 6.08487L22.9888 0.386507L8.56006 6.08487C8.84226 6.4296 9.05652 6.81088 9.20284 7.2235Z" fill="#00101E"/>
<path d="M35.1548 6.13187H10.8229L22.9888 1.44678L35.1548 6.13187ZM12.746 5.7767H33.2316L22.9888 1.82806L12.746 5.7767Z" fill="#00101E"/>
<path d="M10.5198 10.9266H10.1644V8.32026L9.62092 7.50023L9.9188 7.30176L10.5198 8.21057V10.9266Z" fill="#00101E"/>
<path d="M35.8551 10.9266H35.4945V8.21057L36.0954 7.30176L36.3985 7.50023L35.8551 8.32026V10.9266Z" fill="#00101E"/>
<path d="M36.4351 10.749H9.54776V11.1042H36.4351V10.749Z" fill="#00101E"/>
<path d="M35.9857 12.4413H31.8624C31.5489 12.4413 31.2928 12.1854 31.2928 11.872V10.749H36.5605V11.872C36.5605 12.1854 36.3045 12.4413 35.9909 12.4413H35.9857ZM31.6482 11.1042V11.872C31.6482 11.9921 31.7422 12.0861 31.8624 12.0861H35.9857C36.1059 12.0861 36.2 11.9921 36.2 11.872V11.1042H31.6482Z" fill="#00101E"/>
<path d="M35.4736 13.7785H32.3798C32.0663 13.7785 31.8102 13.5225 31.8102 13.2091V12.0862H36.0484V13.2091C36.0484 13.5225 35.7923 13.7785 35.4788 13.7785H35.4736ZM32.1603 12.4414V13.2091C32.1603 13.3293 32.2544 13.4233 32.3746 13.4233H35.4683C35.5885 13.4233 35.6826 13.3293 35.6826 13.2091V12.4414H32.1603Z" fill="#00101E"/>
<path d="M35.6303 38.7552H32.2178V13.4233H35.6303V38.7552ZM32.5732 38.3948H35.2697V13.7785H32.5732V38.3948Z" fill="#00101E"/>
<path d="M14.0629 12.4413H9.9397C9.62614 12.4413 9.37007 12.1854 9.37007 11.872V10.749H14.6378V11.872C14.6378 12.1854 14.3817 12.4413 14.0682 12.4413H14.0629ZM9.72543 11.1042V11.872C9.72543 11.9921 9.8195 12.0861 9.9397 12.0861H14.0629C14.1831 12.0861 14.2772 11.9921 14.2772 11.872V11.1042H9.72543Z" fill="#00101E"/>
<path d="M13.5508 13.7785H10.4571C10.1435 13.7785 9.88744 13.5225 9.88744 13.2091V12.0862H14.1257V13.2091C14.1257 13.5225 13.8696 13.7785 13.556 13.7785H13.5508ZM10.2376 12.4414V13.2091C10.2376 13.3293 10.3316 13.4233 10.4518 13.4233H13.5456C13.6658 13.4233 13.7598 13.3293 13.7598 13.2091V12.4414H10.2376Z" fill="#00101E"/>
<path d="M13.7076 38.7552H10.2951V13.4233H13.7076V38.7552ZM10.6556 38.3948H13.3522V13.7785H10.6556V38.3948Z" fill="#00101E"/>
<path d="M14.6639 42.1187H9.33872V39.8937L10.3839 38.3999H13.624L14.6692 39.8937V42.1187H14.6639ZM9.69408 41.7583H14.3033V40.0034L13.4306 38.7551H10.5616L9.68886 40.0034V41.7583H9.69408Z" fill="#00101E"/>
<path d="M36.5867 42.1187H31.2615V39.9094L32.3066 38.426H35.5467L36.5919 39.9094V42.1187H36.5867ZM31.6168 41.7583H36.2261V40.0191L35.3534 38.7812H32.4843L31.6116 40.0191V41.7583H31.6168Z" fill="#00101E"/>
<path d="M29.9393 42.1187H15.9861V19.7274C15.9861 15.8833 19.1164 12.7546 22.9627 12.7546C26.809 12.7546 29.9393 15.8833 29.9393 19.7274V42.1187ZM16.3415 41.7583H29.5787V19.7274C29.5787 16.0817 26.6104 13.1098 22.9575 13.1098C19.3046 13.1098 16.3362 16.0765 16.3362 19.7274V41.7583H16.3415Z" fill="#00101E"/>
<path d="M28.8471 19.6909H17.0731V19.5134C17.0731 16.3638 19.639 13.7993 22.7902 13.7993H23.1299C26.2812 13.7993 28.8471 16.3638 28.8471 19.5134V19.6909ZM17.4337 19.3358H28.4865C28.3924 16.4631 26.0251 14.1597 23.1299 14.1597H22.7902C19.8951 14.1597 17.5277 16.4683 17.4337 19.3358Z" fill="#00101E"/>
<path d="M25.0896 19.6909H20.8305V19.5133C20.8305 18.3381 21.7869 17.3823 22.9627 17.3823C24.1385 17.3823 25.0949 18.3381 25.0949 19.5133V19.6909H25.0896ZM21.2016 19.3358H24.7291C24.6402 18.4426 23.8825 17.7427 22.9679 17.7427C22.0534 17.7427 21.2956 18.4426 21.2068 19.3358H21.2016Z" fill="#00101E"/>
<path d="M17.256 20.4065V41.936H28.6746V20.4065H17.256ZM18.7192 21.963H22.1893V24.4909H18.7192V21.963ZM24.4782 32.3099V33.553H21.4524V32.3099H24.4782ZM18.7192 25.6034H22.1893V31.5212H18.7192V25.6034ZM22.1736 40.2594H18.7036V34.3416H22.1736V40.2594ZM27.2218 40.2594H23.7518V34.3416H27.2218V40.2594ZM27.2375 31.5212H23.7675V25.6034H27.2375V31.5212ZM27.2375 24.4909H23.7675V21.963H27.2375V24.4909ZM27.828 33.1038C27.5772 33.1038 27.3734 32.9001 27.3734 32.6494C27.3734 32.3987 27.5772 32.195 27.828 32.195C28.0789 32.195 28.2827 32.3987 28.2827 32.6494C28.2827 32.9001 28.0789 33.1038 27.828 33.1038Z" fill="#00101E"/>
<path d="M38.2015 44.0776H7.72391V41.7585H38.2067V44.0776H38.2015ZM8.07927 43.7224H37.8461V42.1189H8.07927V43.7224Z" fill="#00101E"/>
<path d="M40.1612 46.0415H5.76419V43.7224H40.156V46.0415H40.1612ZM6.12478 45.6811H39.8006V44.0776H6.12478V45.6811Z" fill="#00101E"/>
<path d="M42.0216 48H3.90376V45.6809H42.0164V48H42.0216ZM4.26435 47.6448H41.661V46.0413H4.26435V47.6448Z" fill="#00101E"/>
<path d="M45.7477 47.9999H0.177681C0.0783888 47.9999 0 47.9216 0 47.8224C0 47.7231 0.0783888 47.6448 0.177681 47.6448H45.7425C45.8418 47.6448 45.9202 47.7231 45.9202 47.8224C45.9202 47.9216 45.8418 47.9999 45.7425 47.9999H45.7477Z" fill="#00101E"/>
<path d="M36.409 39.7842H31.4391V40.1446H36.409V39.7842Z" fill="#00101E"/>
<path d="M14.4863 39.7686H9.5164V40.1289H14.4863V39.7686Z" fill="#00101E"/>
<path d="M44.5928 47.8224H44.2374V41.9465H40.1612V43.8999H39.8006V41.5913H44.5928V47.8224Z" fill="#00101E"/>
<path d="M44.0911 41.9466H40.156C39.6961 41.9466 39.3251 41.5705 39.3251 41.1161C39.3251 40.6617 39.7013 40.2856 40.156 40.2856H44.0911C44.551 40.2856 44.922 40.6617 44.922 41.1161C44.922 41.5705 44.5457 41.9466 44.0911 41.9466ZM40.156 40.6408C39.8947 40.6408 39.6804 40.855 39.6804 41.1161C39.6804 41.3773 39.8947 41.5914 40.156 41.5914H44.0911C44.3524 41.5914 44.5666 41.3773 44.5666 41.1161C44.5666 40.855 44.3524 40.6408 44.0911 40.6408H40.156Z" fill="#00101E"/>
<path d="M42.1941 28.6903C42.0112 30.6333 42.1314 32.6285 42.1314 34.5767C42.1314 36.5354 42.0948 38.5045 42.1418 40.4631C42.1418 40.5885 42.3352 40.5937 42.3404 40.4631C42.3874 38.5045 42.3456 36.5354 42.3509 34.5767C42.3509 32.6285 42.4711 30.6281 42.2881 28.6903C42.2829 28.6276 42.1941 28.6276 42.1889 28.6903H42.1941Z" fill="#00101E"/>
<path d="M40.1873 30.6752C40.7779 31.6676 41.4677 32.6339 42.1575 33.5583C42.2202 33.6419 42.3665 33.5688 42.3038 33.4748C41.6715 32.5033 40.9921 31.5213 40.2657 30.6178C40.2291 30.5707 40.1612 30.6282 40.1873 30.6804V30.6752Z" fill="#00101E"/>
<path d="M42.3195 30.6281C41.6663 30.2991 41.2691 29.5417 41.3788 28.8314C41.4886 28.1158 42.0425 27.5256 42.1575 26.8101C42.5233 27.4055 42.8944 28.0166 43.0041 28.7008C43.1138 29.385 42.91 30.1685 42.3195 30.5446" fill="#00101E"/>
<path d="M41.243 31.9809C40.5113 32.0593 39.7536 31.6362 39.4505 30.9833C39.1421 30.3252 39.2728 29.5365 38.9749 28.8784C39.6125 29.1761 40.2657 29.4895 40.7413 30.0014C41.2168 30.5132 41.4781 31.281 41.2012 31.913" fill="#00101E"/>
<path d="M44.0911 31.4899C43.4117 32.4196 42.7794 33.4276 42.1941 34.4253C42.1366 34.5193 42.2777 34.6028 42.3404 34.5088C42.9884 33.553 43.626 32.5554 44.1747 31.5369C44.2061 31.4794 44.1277 31.4377 44.0859 31.4847L44.0911 31.4899Z" fill="#00101E"/>
<path d="M43.2968 32.9629C42.9309 32.3414 43.0146 31.49 43.5058 30.952C43.9918 30.4088 44.7861 30.2103 45.2774 29.6724C45.2565 30.367 45.2251 31.0774 44.9429 31.7094C44.6555 32.3413 44.0493 32.8898 43.3438 32.8898" fill="#00101E"/>
<path d="M40.1873 34.0075C40.7779 34.9946 41.4677 35.9661 42.1575 36.8906C42.2202 36.9742 42.3665 36.9011 42.3038 36.807C41.6715 35.8356 40.9921 34.8536 40.2657 33.95C40.2291 33.903 40.1612 33.9605 40.1873 34.0127V34.0075Z" fill="#00101E"/>
<path d="M41.243 35.3132C40.5113 35.3915 39.7536 34.9685 39.4505 34.3156C39.1421 33.6575 39.2728 32.8688 38.9749 32.2107C39.6125 32.5084 40.2657 32.8218 40.7413 33.3337C41.2168 33.8455 41.4781 34.6133 41.2012 35.2453" fill="#00101E"/>
<path d="M44.0911 34.817C43.4117 35.7467 42.7794 36.7548 42.1941 37.7524C42.1366 37.8464 42.2777 37.93 42.3404 37.836C42.9884 36.8801 43.626 35.8825 44.1747 34.864C44.2061 34.8066 44.1277 34.7648 44.0859 34.8118L44.0911 34.817Z" fill="#00101E"/>
<path d="M43.2968 36.2898C42.9309 35.6683 43.0146 34.8169 43.5058 34.2789C43.9918 33.7357 44.7861 33.5372 45.2774 32.9993C45.2565 33.6939 45.2251 34.4043 44.9429 35.0363C44.6555 35.6683 44.0493 36.2167 43.3438 36.2167" fill="#00101E"/>
<path d="M40.1873 37.4809C40.7779 38.468 41.4677 39.4395 42.1575 40.364C42.2202 40.4476 42.3665 40.3744 42.3038 40.2804C41.6715 39.3089 40.9921 38.327 40.2657 37.4234C40.2291 37.3764 40.1612 37.4339 40.1873 37.4861V37.4809Z" fill="#00101E"/>
<path d="M41.243 38.7917C40.5113 38.8701 39.7536 38.447 39.4505 37.7941C39.1421 37.136 39.2728 36.3473 38.9749 35.6892C39.6125 35.9869 40.2657 36.3003 40.7413 36.8122C41.2168 37.324 41.4781 38.0918 41.2012 38.7238" fill="#00101E"/>
<path d="M43.6051 38.2329C43.0982 38.9276 42.6278 39.6797 42.1889 40.4214C42.147 40.4945 42.2516 40.552 42.2986 40.4841C42.7794 39.7737 43.2602 39.0268 43.6678 38.2695C43.6887 38.2277 43.6312 38.1964 43.6051 38.2329Z" fill="#00101E"/>
<path d="M43.0145 39.3298C42.7428 38.865 42.8055 38.233 43.1713 37.8308C43.5371 37.4286 44.1277 37.2772 44.4935 36.875C44.4778 37.3921 44.4569 37.9196 44.2426 38.3949C44.0284 38.865 43.5737 39.2724 43.0511 39.2776" fill="#00101E"/>
<path d="M1.68797 47.8224H1.33261V41.5913H6.12478V43.8999H5.76419V41.9465H1.68797V47.8224Z" fill="#00101E"/>
<path d="M5.76419 41.9466H1.8343C1.37442 41.9466 1.00338 41.5705 1.00338 41.1161C1.00338 40.6617 1.37965 40.2856 1.8343 40.2856H5.76942C6.2293 40.2856 6.60034 40.6617 6.60034 41.1161C6.60034 41.5705 6.22407 41.9466 5.76942 41.9466H5.76419ZM1.8343 40.6408C1.57301 40.6408 1.35874 40.855 1.35874 41.1161C1.35874 41.3773 1.57301 41.5914 1.8343 41.5914H5.76942C6.03071 41.5914 6.24498 41.3773 6.24498 41.1161C6.24498 40.855 6.03071 40.6408 5.76942 40.6408H1.8343Z" fill="#00101E"/>
<path d="M3.86718 28.6903C3.68427 30.6333 3.80447 32.6285 3.80447 34.5767C3.80447 36.5354 3.76788 38.5045 3.81492 40.4631C3.81492 40.5885 4.00828 40.5937 4.0135 40.4631C4.06054 38.5045 4.01873 36.5354 4.02395 34.5767C4.02395 32.6285 4.14415 30.6281 3.96124 28.6903C3.95602 28.6276 3.86718 28.6276 3.86195 28.6903H3.86718Z" fill="#00101E"/>
<path d="M1.86042 30.6752C2.45095 31.6676 3.14077 32.6339 3.83059 33.5583C3.8933 33.6419 4.03963 33.5688 3.97692 33.4748C3.34458 32.5033 2.66521 31.5213 1.93881 30.6178C1.90223 30.5707 1.83429 30.6282 1.86042 30.6804V30.6752Z" fill="#00101E"/>
<path d="M3.9926 30.6281C3.33936 30.2991 2.94219 29.5417 3.05193 28.8314C3.16168 28.1158 3.71563 27.5256 3.8306 26.8101C4.19641 27.4055 4.56745 28.0166 4.67719 28.7008C4.78694 29.385 4.58313 30.1685 3.9926 30.5446" fill="#00101E"/>
<path d="M2.91606 31.9809C2.18443 32.0593 1.42667 31.6362 1.12357 30.9833C0.81524 30.3252 0.945888 29.5365 0.64801 28.8784C1.28557 29.1761 1.93881 29.4895 2.41437 30.0014C2.88993 30.5132 3.15123 31.281 2.87425 31.913" fill="#00101E"/>
<path d="M5.76419 31.4899C5.08482 32.4196 4.45248 33.4276 3.86718 34.4253C3.80969 34.5193 3.95079 34.6028 4.01351 34.5088C4.66152 33.553 5.29908 32.5554 5.8478 31.5369C5.87916 31.4794 5.80077 31.4377 5.75896 31.4847L5.76419 31.4899Z" fill="#00101E"/>
<path d="M4.97507 32.9629C4.60926 32.3414 4.69287 31.49 5.18411 30.952C5.67012 30.4088 6.46446 30.2103 6.9557 29.6724C6.93479 30.367 6.90344 31.0774 6.62124 31.7094C6.33381 32.3413 5.72761 32.8898 5.02211 32.8898" fill="#00101E"/>
<path d="M1.86042 34.0075C2.45095 34.9946 3.14077 35.9661 3.83059 36.8906C3.8933 36.9742 4.03963 36.9011 3.97692 36.807C3.34458 35.8356 2.66521 34.8536 1.93881 33.95C1.90223 33.903 1.83429 33.9605 1.86042 34.0127V34.0075Z" fill="#00101E"/>
<path d="M2.91606 35.3132C2.18443 35.3915 1.42667 34.9685 1.12357 34.3156C0.81524 33.6575 0.945888 32.8688 0.64801 32.2107C1.28557 32.5084 1.93881 32.8218 2.41437 33.3337C2.88993 33.8455 3.15123 34.6133 2.87425 35.2453" fill="#00101E"/>
<path d="M5.76419 34.817C5.08482 35.7467 4.45248 36.7548 3.86718 37.7524C3.80969 37.8464 3.95079 37.93 4.01351 37.836C4.66152 36.8801 5.29908 35.8825 5.8478 34.864C5.87916 34.8066 5.80077 34.7648 5.75896 34.8118L5.76419 34.817Z" fill="#00101E"/>
<path d="M4.97507 36.2898C4.60926 35.6683 4.69287 34.8169 5.18411 34.2789C5.67012 33.7357 6.46446 33.5372 6.9557 32.9993C6.93479 33.6939 6.90344 34.4043 6.62124 35.0363C6.33381 35.6683 5.72761 36.2167 5.02211 36.2167" fill="#00101E"/>
<path d="M1.86042 37.4809C2.45095 38.468 3.14077 39.4395 3.83059 40.364C3.8933 40.4476 4.03963 40.3744 3.97692 40.2804C3.34458 39.3089 2.66521 38.327 1.93881 37.4234C1.90223 37.3764 1.83429 37.4339 1.86042 37.4861V37.4809Z" fill="#00101E"/>
<path d="M2.91606 38.7917C2.18443 38.8701 1.42667 38.447 1.12357 37.7941C0.81524 37.136 0.945888 36.3473 0.64801 35.6892C1.28557 35.9869 1.93881 36.3003 2.41437 36.8122C2.88993 37.324 3.15123 38.0918 2.87425 38.7238" fill="#00101E"/>
<path d="M5.27818 38.2329C4.77126 38.9276 4.30093 39.6797 3.86195 40.4214C3.82014 40.4945 3.92466 40.552 3.9717 40.4841C4.45248 39.7737 4.93327 39.0268 5.34089 38.2695C5.36179 38.2277 5.30431 38.1964 5.27818 38.2329Z" fill="#00101E"/>
<path d="M4.68764 39.3298C4.4159 38.865 4.47861 38.233 4.84442 37.8308C5.21024 37.4286 5.80076 37.2772 6.16658 36.875C6.1509 37.3921 6.13 37.9196 5.91573 38.3949C5.70147 38.865 5.24682 39.2724 4.72422 39.2776" fill="#00101E"/>
<path d="M23.1404 13.9771H22.785V17.5653H23.1404V13.9771Z" fill="#00101E"/>
<path d="M27.1063 15.6051L24.46 18.249L24.7113 18.5002L27.3576 15.8563L27.1063 15.6051Z" fill="#00101E"/>
<path d="M18.8635 15.6209L18.6122 15.8721L21.2506 18.5091L21.5019 18.2579L18.8635 15.6209Z" fill="#00101E"/>
<path d="M66.8435 11.3862L66.8331 11.4384L66.4359 13.021L66.4098 13.0315C66.1276 13.1359 65.8088 13.2404 65.6363 13.2822C65.1085 13.4127 64.5441 13.5433 63.9797 13.5642C63.8647 13.5642 63.7498 13.5694 63.6243 13.5694C62.7255 13.5694 61.5653 13.4389 60.5881 12.9166C60.1021 12.6554 59.6526 12.2689 59.2868 11.8093C58.6179 10.9631 58.2416 9.74615 58.2835 8.54484C58.3409 6.83168 59.2503 5.28043 60.7187 4.40295C61.5392 3.91198 62.506 3.81274 63.1697 3.81274C63.3526 3.81274 63.546 3.82319 63.7393 3.83886C64.1365 3.87542 64.5337 3.9381 64.9204 4.03211C65.1294 4.0739 65.3437 4.13657 65.5579 4.19925L65.6102 4.21492C65.6938 4.23581 65.7722 4.26193 65.861 4.28282C66.091 4.3455 66.2478 4.32983 66.3261 4.23581L66.3418 4.21492H66.5404V6.53919H66.3523L66.3418 6.50262C66.3105 6.41383 66.2687 6.32504 66.2269 6.23102C65.9342 5.59903 65.5632 4.92003 64.9935 4.59098C64.4814 4.29849 63.8909 4.13135 63.3212 4.13135C62.344 4.13135 61.5392 4.44996 60.9225 5.08717C60.1543 5.87586 59.7363 7.13462 59.7781 8.54484C59.799 9.42754 59.9923 10.3572 60.3007 11.0206C60.6456 11.7727 61.1107 12.3368 61.6751 12.692C61.8737 12.8173 62.0775 12.9166 62.2865 13.0001C63.0286 13.2769 63.9431 13.3187 64.7322 13.1046C64.9935 13.0315 65.2548 12.9061 65.537 12.7181C65.7722 12.5614 66.0021 12.342 66.2216 12.0652C66.3366 11.9242 66.4411 11.7623 66.5456 11.5794L66.6711 11.3392L66.854 11.3914L66.8435 11.3862Z" fill="#00101E"/>
<path d="M76.0894 5.29603V12.086C76.0894 12.5874 76.173 12.906 76.3611 13.0888C76.4866 13.209 76.6433 13.2612 76.8524 13.2612H76.9517V13.4492H73.8423V13.2612H73.9363C74.1506 13.2612 74.3126 13.209 74.4328 13.0888C74.6209 12.906 74.7045 12.5874 74.7045 12.086V8.2784H69.5936V12.086C69.5936 12.5874 69.6824 12.906 69.8653 13.0888C69.9855 13.209 70.1475 13.2612 70.3566 13.2612H70.4559V13.4492H67.3464V13.2612H67.4144C67.6443 13.2612 67.8168 13.2038 67.937 13.0888C68.1251 12.906 68.2087 12.5874 68.2087 12.086V5.29081C68.2087 4.78939 68.1199 4.47079 67.937 4.28798C67.8115 4.17307 67.6548 4.11562 67.4457 4.11562H67.3517V3.92759H70.4611V4.11562H70.3566C70.158 4.11562 69.9908 4.17307 69.8706 4.28798C69.6824 4.47079 69.5988 4.78939 69.5988 5.29081V7.9598H74.7098V5.28558C74.7098 4.78417 74.6261 4.46556 74.438 4.28275C74.3126 4.16785 74.1558 4.11039 73.9468 4.11039H73.8475V3.92236H76.9569V4.11039H76.8628C76.6538 4.11039 76.497 4.16785 76.3716 4.28275C76.1835 4.46556 76.0999 4.78417 76.0946 5.29081L76.0894 5.29603Z" fill="#00101E"/>
<path d="M84.2941 13.4544H77.5161V13.2664H77.6101C77.8192 13.2664 77.9812 13.2089 78.1066 13.094C78.2947 12.9112 78.3783 12.5926 78.3783 12.0912V5.30121C78.3783 4.79979 78.2895 4.48119 78.1014 4.29838C77.976 4.17825 77.8192 4.12602 77.6101 4.12602H77.5108V3.93799H83.9858V5.57803H83.7976L83.782 5.54669C83.4109 4.63788 82.7211 4.24615 81.4721 4.24615H79.758V8.13734H81.0697C82.0992 8.13734 82.6061 7.92319 82.8726 7.36432L82.9145 7.27031H83.1078V9.42221H82.9197L82.8726 9.31775C82.6061 8.68576 82.0992 8.4455 81.0697 8.4455H79.758V13.1515H81.7647C82.8935 13.1515 83.5363 12.8277 83.923 12.039C83.923 12.0337 84.0955 11.6472 84.0955 11.6472H84.2836V13.4596L84.2941 13.4544Z" fill="#00101E"/>
<path d="M91.8194 13.4545H88.1404H85.0309V13.2665H85.0989C85.3288 13.2665 85.5013 13.209 85.6215 13.0941C85.8096 12.9113 85.8932 12.5927 85.8932 12.0913V5.29608C85.8932 4.79467 85.8044 4.47606 85.6215 4.29325C85.5013 4.17835 85.3393 4.12089 85.1302 4.12089H85.0362V3.93286H88.1456V4.12089H88.0411C87.8425 4.12089 87.6753 4.17835 87.5551 4.29325C87.3669 4.47606 87.2833 4.79467 87.2833 5.29608V13.1411H89.3266C90.5443 13.1411 91.1923 12.7651 91.5738 11.8354L91.6574 11.6421H91.8299V13.4597L91.8194 13.4545Z" fill="#00101E"/>
<path d="M99.7419 10.8169C99.7419 11.1459 99.674 11.4698 99.5277 11.804C99.2141 12.5248 98.5034 12.9531 98.1062 13.1464C97.5209 13.4284 96.852 13.5747 96.1622 13.5747C95.7493 13.5747 95.3312 13.5224 94.9236 13.418C94.2338 13.2404 93.638 12.9897 93.4604 12.9113C93.429 12.8957 93.3558 12.88 93.3349 12.8748C93.1416 12.8539 93.0475 12.9636 93.0475 12.9636H92.8071V10.493H92.99L93.0005 10.5296C93.3872 11.8145 93.9777 12.6241 94.8139 13.0001C95.1065 13.1255 95.4253 13.209 95.7389 13.2404C96.6638 13.3344 97.8031 13.0419 98.2787 12.1958C98.7856 11.2713 98.2787 10.3834 97.5523 9.90806C97.1655 9.65213 96.7266 9.50066 96.3451 9.37009L95.9218 9.21862C94.9341 8.8739 93.8157 8.47694 93.1834 7.66737C92.5981 6.91002 92.6556 5.70349 93.314 4.92003C93.5231 4.66933 93.7948 4.43951 94.0822 4.2776C94.6153 3.96944 95.2738 3.81274 96.0315 3.81274H96.042C96.7631 3.81274 97.547 3.95899 98.2525 4.22537C98.3205 4.24626 98.5556 4.31416 98.6654 4.18358L98.6811 4.16269H98.9214V6.41905H98.7333L98.7229 6.38249C98.5922 6.00121 98.1741 5.19163 97.8136 4.7999C97.5418 4.49697 97.1185 4.2776 96.6273 4.18358C96.1569 4.10001 95.7441 4.10001 95.3626 4.19403C94.7041 4.35594 93.9986 4.91481 93.9986 5.77139C93.9986 7.05627 95.5455 7.5838 96.2092 7.81361L96.4444 7.89196C97.3798 8.20534 98.3518 8.52917 99.0678 9.21862C99.5172 9.65213 99.7576 10.2006 99.7576 10.8064L99.7419 10.8169Z" fill="#00101E"/>
<path d="M107.173 13.4544H100.395V13.2664H100.489C100.698 13.2664 100.86 13.2089 100.986 13.094C101.174 12.9112 101.257 12.5926 101.257 12.0912V5.30121C101.257 4.79979 101.169 4.48119 100.98 4.29838C100.855 4.17825 100.698 4.12602 100.489 4.12602H100.39V3.93799H106.865V5.57803H106.677L106.661 5.54669C106.29 4.63788 105.6 4.24615 104.351 4.24615H102.637V8.13734H103.949C104.978 8.13734 105.485 7.92319 105.752 7.36432L105.794 7.27031H105.987V9.42221H105.799L105.752 9.31775C105.485 8.68576 104.978 8.4455 103.949 8.4455H102.637V13.1515H104.644C105.773 13.1515 106.415 12.8277 106.802 12.039C106.802 12.0337 106.975 11.6472 106.975 11.6472H107.163V13.4596L107.173 13.4544Z" fill="#00101E"/>
<path d="M117.515 13.4546H114.03V13.2666C114.03 13.2666 114.27 13.2666 114.322 13.2614C114.51 13.2352 114.641 13.1726 114.725 13.0577C114.845 12.8853 114.834 12.6241 114.698 12.2429L113.685 9.82458H110.262L109.483 11.966C109.316 12.4831 109.305 12.8226 109.462 13.0315C109.582 13.1935 109.791 13.2666 110.1 13.2666H110.199V13.4546H107.722V13.2666H107.806C108.323 13.2666 108.694 12.9271 109.002 12.1541L112.054 3.92773H112.619L112.634 3.95907L116.198 12.1593C116.491 12.7861 116.799 13.1151 117.202 13.2248C117.228 13.23 117.254 13.2352 117.285 13.2405C117.338 13.2457 117.526 13.2666 117.526 13.2666V13.4546H117.515ZM113.544 9.51119L111.84 5.46332L110.366 9.51119H113.544Z" fill="#00101E"/>
<path d="M65.8309 21.6965C65.8309 23.3314 64.4461 24.3081 62.1153 24.3081H60.5214V27.3897C60.5214 27.8911 60.6102 28.2097 60.7984 28.3977C60.9238 28.5126 61.0858 28.5701 61.2896 28.5701H61.3889V28.7581H58.2742V28.5701H58.3422C58.5564 28.5701 58.7394 28.5231 58.87 28.3977C59.0581 28.2149 59.1417 27.8963 59.1417 27.3949V20.6049C59.1417 20.1035 59.0581 19.7849 58.87 19.6021C58.7498 19.4872 58.5878 19.4297 58.3788 19.4297H58.2795V19.2417H62.4916C64.6185 19.2417 65.8362 20.1401 65.8362 21.707L65.8309 21.6965ZM64.3729 21.6965C64.3729 20.3072 63.704 19.5446 62.4916 19.5446H60.5266V24.0051H62.1205C63.5315 24.0051 64.3729 23.1433 64.3729 21.7018V21.6965Z" fill="#00101E"/>
<path d="M76.0058 23.9476C76.0058 25.3578 75.5355 26.5487 74.6105 27.4784C73.6803 28.4081 72.5462 28.8834 71.2293 28.8834C69.9124 28.8834 68.7627 28.4238 67.8586 27.515C66.9545 26.6061 66.4946 25.4101 66.4946 23.9685C66.4946 22.5269 67.0277 21.2734 68.0728 20.3437C68.9822 19.5341 70.0848 19.1267 71.3495 19.1267C72.6142 19.1267 73.7064 19.5916 74.6261 20.5056C75.5459 21.4196 76.011 22.5792 76.011 23.9528L76.0058 23.9476ZM74.5007 24.1304C74.5007 22.4851 74.1558 21.2368 73.4764 20.4168C72.9277 19.7691 72.1647 19.4349 71.2032 19.4349C70.2939 19.4349 69.557 19.7639 69.0083 20.4168C68.3341 21.2159 67.9892 22.3963 67.9892 23.9319C67.9892 25.4675 68.3446 26.7367 69.0449 27.5829C69.5884 28.2357 70.3148 28.57 71.2084 28.57C72.1543 28.57 72.9539 28.2044 73.5705 27.4941C74.1872 26.7837 74.5007 25.6503 74.5007 24.1304Z" fill="#00101E"/>
<path d="M85.2975 28.57V28.758C85.2975 28.758 84.6181 28.758 84.3411 28.758H84.1269C82.7368 28.758 82.2926 27.8544 81.6759 26.6113L81.6655 26.5904C81.5139 26.2875 81.378 26.0159 81.2213 25.7286C81.007 25.3316 80.7353 24.9922 80.4165 24.7206C80.2806 24.6056 80.1343 24.5012 79.9775 24.4124C79.9775 24.4124 79.967 24.4124 79.9618 24.4019L79.9148 24.3706C79.9148 24.3706 79.8573 24.334 79.8259 24.3184L79.8103 24.3079H78.7546V27.3895C78.7546 27.891 78.8435 28.2096 79.0264 28.3976C79.1466 28.5177 79.3086 28.57 79.5176 28.57H79.6169V28.758H76.5023V28.57H76.5545C76.7897 28.57 76.9621 28.5177 77.0928 28.3976C77.2809 28.2148 77.3645 27.8962 77.3645 27.3948V20.6048C77.3645 20.0981 77.2757 19.7795 77.0928 19.6019C76.9674 19.487 76.8106 19.4244 76.6016 19.4244H76.5023V19.2363H80.7091C82.8361 19.2363 84.0537 20.1347 84.0537 21.7016C84.0537 23.1275 82.9876 24.0677 81.1272 24.2714L80.9338 24.2923L81.1011 24.3967C81.1272 24.4124 81.1533 24.4333 81.1795 24.449L81.2265 24.4803C81.2631 24.5064 81.2997 24.5273 81.3206 24.543C81.6759 24.7571 81.9895 25.0339 82.2874 25.3943C82.3605 25.4779 82.4285 25.5667 82.4964 25.6607C82.5591 25.7495 82.6218 25.8383 82.6845 25.9219L82.9406 26.277C83.2385 26.7053 83.552 27.1441 83.8969 27.5515L83.9231 27.5828C84.2262 27.9432 84.6808 28.4655 85.2505 28.57H85.2923H85.2975ZM82.5957 21.7016C82.5957 20.3123 81.9268 19.5497 80.7091 19.5497H78.7494V24.005H80.3433C81.7543 24.005 82.5957 23.1432 82.5957 21.7016Z" fill="#00101E"/>
<path d="M94.0457 19.2311V21.1062H93.8575L93.7739 20.913C93.382 19.9467 92.7131 19.5393 91.5268 19.5393H90.3144V27.3896C90.3144 27.8962 90.398 28.2148 90.5861 28.3924C90.7063 28.5125 90.8631 28.5648 91.0773 28.5648H91.1714V28.7528H88.0568V28.5648H88.1404C88.3599 28.5648 88.5219 28.5073 88.6421 28.3924C88.8302 28.2096 88.919 27.891 88.919 27.3844V19.5341H87.7014C86.5203 19.5341 85.8514 19.9467 85.4543 20.9025L85.3706 21.0958H85.1825V19.2207H94.03L94.0457 19.2311Z" fill="#00101E"/>
<path d="M101.226 28.7634H97.547H94.4376V28.5753H94.5055C94.7355 28.5753 94.9079 28.5179 95.0281 28.403C95.2163 28.2202 95.2999 27.9015 95.2999 27.4001V20.6049C95.2999 20.1035 95.211 19.7849 95.0281 19.6021C94.9027 19.4872 94.7459 19.4297 94.5369 19.4297H94.4428V19.2417H97.5523V19.4297H97.4477C97.2491 19.4297 97.0819 19.4872 96.9617 19.6021C96.7736 19.7849 96.69 20.1035 96.69 20.6049V28.45H98.7333C99.9509 28.45 100.599 28.0739 100.98 27.1442L101.064 26.9509H101.237V28.7686L101.226 28.7634Z" fill="#00101E"/>
<path d="M111.49 28.7632H108.004V28.5752C108.004 28.5752 108.244 28.5752 108.297 28.57C108.485 28.5438 108.616 28.4812 108.699 28.3663C108.819 28.1939 108.809 27.9327 108.673 27.5515L107.659 25.1332H104.236L103.458 27.2746C103.29 27.7917 103.28 28.1312 103.437 28.3401C103.557 28.5021 103.766 28.5752 104.074 28.5752H104.173V28.7632H101.696V28.5752H101.78C102.297 28.5752 102.668 28.2357 102.977 27.4627L106.029 19.2363H106.593L106.609 19.2677L110.173 27.4679C110.466 28.0947 110.774 28.4237 111.176 28.5334C111.202 28.5386 111.228 28.5438 111.26 28.5491C111.312 28.5543 111.5 28.5752 111.5 28.5752V28.7632H111.49ZM107.523 24.8198L105.814 20.7719L104.341 24.8198H107.518H107.523Z" fill="#00101E"/>
<path d="M120.714 19.2312V19.4192H120.614C120.4 19.4192 120.238 19.4715 120.118 19.5864C119.945 19.7483 119.862 20.1661 119.851 20.5892V28.7529H119.329L118.764 27.9485L113.136 20.2758V27.3844C113.136 27.8858 113.225 28.194 113.413 28.3768C113.533 28.4969 113.695 28.5596 113.904 28.5596H113.998V28.7476H111.892V28.5596H111.944C112.185 28.5596 112.352 28.5074 112.483 28.3872C112.671 28.2044 112.754 27.8858 112.754 27.3844V20.5944C112.754 20.093 112.671 19.7744 112.483 19.5916C112.357 19.4715 112.195 19.4192 111.991 19.4192H111.897V19.2312H113.998L114.014 19.2521L119.48 26.742V20.5944C119.48 20.093 119.386 19.7744 119.203 19.5916C119.078 19.4715 118.921 19.4192 118.712 19.4192H118.613V19.2312H120.724H120.714Z" fill="#00101E"/>
<path d="M130 23.9998C130 27.0292 128.317 28.7633 125.38 28.7633H121.267V28.5752H121.367C121.576 28.5752 121.733 28.5178 121.858 28.4029C122.046 28.2201 122.13 27.9015 122.13 27.4V20.61C122.13 20.1034 122.041 19.7848 121.858 19.6072C121.738 19.4923 121.576 19.4349 121.367 19.4349H121.273V19.2468H124.858C128.129 19.2468 130.005 20.9809 130.005 24.0103L130 23.9998ZM128.61 23.9998C128.61 21.1689 127.241 19.5445 124.852 19.5445H123.515V28.4551H125.38C127.434 28.4551 128.61 26.8307 128.615 23.9998H128.61Z" fill="#00101E"/>
<path d="M67.0224 35.9083V42.6983C67.0224 43.1997 67.106 43.5183 67.2942 43.7012C67.4196 43.8213 67.5764 43.8735 67.7854 43.8735H67.8847V44.0615H64.7753V43.8735H64.8694C65.0836 43.8735 65.2456 43.8213 65.3658 43.7012C65.5539 43.5183 65.6376 43.1997 65.6376 42.6983V38.8907H60.5266V42.6983C60.5266 43.1997 60.6155 43.5183 60.7984 43.7012C60.9186 43.8213 61.0806 43.8735 61.2896 43.8735H61.3889V44.0615H58.2795V43.8735H58.3474C58.5773 43.8735 58.7498 43.8161 58.87 43.7012C59.0581 43.5183 59.1417 43.1997 59.1417 42.6983V35.9031C59.1417 35.4017 59.0529 35.0831 58.87 34.9003C58.7446 34.7854 58.5878 34.7279 58.3788 34.7279H58.2847V34.5399H61.3941V34.7279H61.2896C61.091 34.7279 60.9238 34.7854 60.8036 34.9003C60.6155 35.0831 60.5318 35.4017 60.5318 35.9031V38.5721H65.6428V35.8979C65.6428 35.3965 65.5592 35.0779 65.371 34.8951C65.2456 34.7801 65.0888 34.7227 64.8798 34.7227H64.7805V34.5347H67.8899V34.7227H67.7959C67.5868 34.7227 67.43 34.7801 67.3046 34.8951C67.1165 35.0779 67.0329 35.3965 67.0277 35.9031L67.0224 35.9083Z" fill="#00101E"/>
<path d="M77.9394 39.2511C77.9394 40.6613 77.469 41.8522 76.5441 42.7819C75.6138 43.7116 74.4798 44.1869 73.1629 44.1869C71.846 44.1869 70.6963 43.7272 69.7922 42.8184C68.8829 41.9096 68.4282 40.7135 68.4282 39.272C68.4282 37.8304 68.9613 36.5769 70.0064 35.6472C70.9157 34.8376 72.0184 34.4302 73.2831 34.4302C74.5478 34.4302 75.64 34.895 76.5597 35.8091C77.4795 36.7231 77.9446 37.8826 77.9446 39.2563L77.9394 39.2511ZM76.4343 39.4339C76.4343 37.7886 76.0894 36.5403 75.41 35.7203C74.8613 35.0726 74.0983 34.7383 73.1368 34.7383C72.2274 34.7383 71.4906 35.0674 70.9419 35.7203C70.2625 36.5194 69.9228 37.6998 69.9228 39.2354C69.9228 40.771 70.2782 42.0402 70.9785 42.8863C71.522 43.5392 72.2484 43.8735 73.142 43.8735C74.0931 43.8735 74.8874 43.5079 75.5041 42.7975C76.1208 42.0872 76.4291 40.9538 76.4291 39.4339H76.4343Z" fill="#00101E"/>
<path d="M87.5028 34.5399V34.7279C87.5028 34.7279 87.3147 34.7279 87.2781 34.7279C87.09 34.7436 86.9436 34.8063 86.8287 34.9212C86.6196 35.1249 86.5203 35.48 86.5203 36.0441V39.5906C86.5203 40.6718 86.4994 41.4866 86.327 42.0716C86.1545 42.6409 85.8044 43.1423 85.2922 43.5549C84.8062 43.9519 83.991 44.1817 83.066 44.1817C82.627 44.1817 82.1515 44.119 81.7177 44.0093C80.9391 43.8161 80.3015 43.3825 79.9095 42.7871C79.7266 42.5051 79.5855 42.1708 79.5019 41.8C79.3347 41.0948 79.3242 40.3323 79.3138 39.6585C79.3033 39.1832 79.3033 38.0864 79.3033 37.282V35.9031C79.3033 35.1144 79.0943 34.7645 78.5978 34.7279H78.4358V34.5399H81.5505V34.7279H81.5296C81.5296 34.7279 81.4407 34.7279 81.4251 34.7279C81.3101 34.7279 81.2003 34.754 81.0958 34.801C81.0227 34.8376 80.96 34.8846 80.9129 34.9473C80.8554 35.0152 80.8189 35.0988 80.7875 35.1771C80.7509 35.2816 80.7248 35.3913 80.7143 35.5009C80.6987 35.6367 80.6882 35.7778 80.6882 35.9136C80.6882 36.0702 80.6882 39.7368 80.6934 40.1286C80.6934 40.5778 80.7143 40.9486 80.7561 41.3038C80.8241 41.8626 80.9495 42.3118 81.1272 42.6252C81.3049 42.9438 81.5662 43.2102 81.9058 43.4243C82.2403 43.6333 82.6636 43.7377 83.1496 43.7377C83.6356 43.7377 84.3725 43.6646 84.9108 43.3094C85.4072 42.9856 85.7469 42.5677 85.9298 42.0611C86.1023 41.5858 86.1023 40.7397 86.1023 39.6742V36.0494C86.1023 35.4957 86.003 35.1405 85.7939 34.9316C85.6476 34.7906 85.4543 34.7227 85.193 34.7227H85.0623V34.5347H87.508L87.5028 34.5399Z" fill="#00101E"/>
<path d="M95.1327 41.4292C95.1327 41.7582 95.0647 42.0821 94.9184 42.4163C94.6048 43.1371 93.8941 43.5654 93.497 43.7587C92.9116 44.0407 92.2427 44.187 91.5529 44.187C91.1401 44.187 90.722 44.1347 90.3144 44.0303C89.6245 43.8527 89.0288 43.602 88.8511 43.5236C88.8198 43.508 88.7466 43.4923 88.7257 43.4871C88.5323 43.4662 88.4383 43.5759 88.4383 43.5759H88.1979V41.1053H88.3808L88.3912 41.1419C88.7779 42.4268 89.3685 43.2364 90.2046 43.6124C90.4973 43.7378 90.8161 43.8213 91.1296 43.8527C92.0546 43.9467 93.1938 43.6542 93.6694 42.8081C94.1763 41.8836 93.6694 40.9957 92.943 40.5204C92.5563 40.2644 92.1173 40.113 91.7358 39.9824L91.3125 39.8309C90.3248 39.4862 89.2065 39.0892 88.5741 38.2797C87.9888 37.5223 88.0463 36.3158 88.7048 35.5323C88.9138 35.2816 89.1856 35.0518 89.473 34.8899C90.006 34.5817 90.6645 34.425 91.4223 34.425H91.4327C92.1539 34.425 92.9378 34.5713 93.6433 34.8377C93.7112 34.8586 93.9464 34.9265 94.0561 34.7959L94.0718 34.775H94.3122V37.0314H94.1241L94.1136 36.9948C93.983 36.6135 93.5649 35.8039 93.2043 35.4122C92.9326 35.1093 92.5093 34.8899 92.018 34.7959C91.5477 34.7123 91.1348 34.7123 90.7533 34.8063C90.0949 34.9682 89.3894 35.5271 89.3894 36.3837C89.3894 37.6686 90.9362 38.1961 91.5999 38.4259L91.8351 38.5043C92.7705 38.8176 93.7426 39.1415 94.4585 39.8309C94.9079 40.2644 95.1483 40.8129 95.1483 41.4187L95.1327 41.4292Z" fill="#00101E"/>
<path d="M102.564 44.0667H95.7859V43.8787H95.88C96.089 43.8787 96.251 43.8212 96.3764 43.7063C96.5646 43.5235 96.6482 43.2049 96.6482 42.7035V35.9135C96.6482 35.4121 96.5594 35.0935 96.3712 34.9107C96.251 34.7906 96.089 34.7383 95.88 34.7383H95.7807V34.5503H102.261V36.1903H102.073L102.057 36.159C101.686 35.2502 100.996 34.8585 99.7472 34.8585H98.0331V38.7496H99.3448C100.374 38.7496 100.881 38.5355 101.148 37.9766L101.19 37.8826H101.383V40.0345H101.195L101.148 39.9301C100.881 39.2981 100.374 39.0578 99.3448 39.0578H98.0331V43.7638H100.04C101.169 43.7638 101.811 43.44 102.198 42.6513C102.198 42.6461 102.371 42.2595 102.371 42.2595H102.559V44.0719L102.564 44.0667Z" fill="#00101E"/>
<path d="M52.3585 0H52.1599V48H52.3585V0Z" fill="#00101E"/>
</g>
<defs>
<clipPath id="clip0_172_708">
<rect width="130" height="48" fill="white"/>
</clipPath>
</defs>
</svg>
