<svg width="152" height="56" viewBox="0 0 152 56" fill="none" xmlns="http://www.w3.org/2000/svg">
<g clip-path="url(#clip0_145_2448)">
<path d="M43.3038 8.84178H10.4609L10.412 8.69554C10.2287 8.12274 9.92318 7.60479 9.50157 7.14777L9.29382 6.92231L26.8793 0L44.4647 6.9284L44.257 7.15386C43.8354 7.61088 43.5299 8.12884 43.3466 8.70163L43.2977 8.84788L43.3038 8.84178ZM10.7603 8.42742H42.9983C43.1694 7.94603 43.4199 7.5012 43.7498 7.09902L26.8793 0.450925L10.0087 7.09902C10.3387 7.5012 10.5892 7.94603 10.7603 8.42742Z" fill="white"/>
<path d="M41.1039 7.15344H12.6543L26.8791 1.6875L41.1039 7.15344ZM14.9029 6.73908H38.8553L26.8791 2.13233L14.9029 6.73908Z" fill="white"/>
<path d="M12.3 12.7485H11.8845V9.70778L11.249 8.75109L11.5973 8.51953L12.3 9.57981V12.7485Z" fill="white"/>
<path d="M41.9226 12.7485H41.501V9.57981L42.2037 8.51953L42.5581 8.75109L41.9226 9.70778V12.7485Z" fill="white"/>
<path d="M42.6011 12.5391H11.1636V12.9534H42.6011V12.5391Z" fill="white"/>
<path d="M42.0754 14.5134H37.2544C36.8878 14.5134 36.5884 14.2148 36.5884 13.8492V12.5391H42.7476V13.8492C42.7476 14.2148 42.4482 14.5134 42.0815 14.5134H42.0754ZM37.0039 12.9534V13.8492C37.0039 13.9893 37.1139 14.099 37.2544 14.099H42.0754C42.216 14.099 42.326 13.9893 42.326 13.8492V12.9534H37.0039Z" fill="white"/>
<path d="M41.4767 16.0759H37.8594C37.4928 16.0759 37.1934 15.7773 37.1934 15.4117V14.1016H42.1488V15.4117C42.1488 15.7773 41.8494 16.0759 41.4828 16.0759H41.4767ZM37.6028 14.5159V15.4117C37.6028 15.5518 37.7127 15.6615 37.8533 15.6615H41.4706C41.6111 15.6615 41.7211 15.5518 41.7211 15.4117V14.5159H37.6028Z" fill="white"/>
<path d="M41.66 45.214H37.6699V15.6602H41.66V45.214ZM38.0854 44.7936H41.2383V16.0745H38.0854V44.7936Z" fill="white"/>
<path d="M16.4426 14.5134H11.6216C11.255 14.5134 10.9556 14.2148 10.9556 13.8492V12.5391H17.1148V13.8492C17.1148 14.2148 16.8154 14.5134 16.4487 14.5134H16.4426ZM11.3711 12.9534V13.8492C11.3711 13.9893 11.4811 14.099 11.6216 14.099H16.4426C16.5832 14.099 16.6931 13.9893 16.6931 13.8492V12.9534H11.3711Z" fill="white"/>
<path d="M15.8439 16.0759H12.2266C11.86 16.0759 11.5605 15.7773 11.5605 15.4117V14.1016H16.516V15.4117C16.516 15.7773 16.2166 16.0759 15.85 16.0759H15.8439ZM11.9699 14.5159V15.4117C11.9699 15.5518 12.0799 15.6615 12.2205 15.6615H15.8378C15.9783 15.6615 16.0883 15.5518 16.0883 15.4117V14.5159H11.9699Z" fill="white"/>
<path d="M16.0271 45.214H12.0371V15.6602H16.0271V45.214ZM12.4587 44.7936H15.6116V16.0745H12.4587V44.7936Z" fill="white"/>
<path d="M17.1453 49.1394H10.9189V46.5435L12.141 44.8008H15.9294L17.1515 46.5435V49.1394H17.1453ZM11.3344 48.719H16.7237V46.6715L15.7033 45.2151H12.3488L11.3283 46.6715V48.719H11.3344Z" fill="white"/>
<path d="M42.7782 49.1402H36.5518V46.5626L37.7738 44.832H41.5622L42.7843 46.5626V49.1402H42.7782ZM36.9673 48.7197H42.3565V46.6906L41.3361 45.2464H37.9816L36.9611 46.6906V48.7197H36.9673Z" fill="white"/>
<path d="M35.0059 49.137H18.6914V23.0138C18.6914 18.529 22.3515 14.8789 26.8487 14.8789C31.3459 14.8789 35.0059 18.529 35.0059 23.0138V49.137ZM19.1069 48.7166H34.5843V23.0138C34.5843 18.7605 31.1137 15.2933 26.8426 15.2933C22.5715 15.2933 19.1008 18.7544 19.1008 23.0138V48.7166H19.1069Z" fill="white"/>
<path d="M33.7289 22.9712H19.9624V22.764C19.9624 19.0896 22.9626 16.0977 26.6471 16.0977H27.0442C30.7288 16.0977 33.7289 19.0896 33.7289 22.764V22.9712ZM20.384 22.5569H33.3073C33.1973 19.2054 30.4294 16.5181 27.0442 16.5181H26.6471C23.262 16.5181 20.494 19.2115 20.384 22.5569Z" fill="white"/>
<path d="M29.3354 22.9746H24.3555V22.7674C24.3555 21.3964 25.4737 20.2812 26.8485 20.2812C28.2233 20.2812 29.3415 21.3964 29.3415 22.7674V22.9746H29.3354ZM24.7893 22.5602H28.9138C28.8099 21.5182 27.9239 20.7017 26.8546 20.7017C25.7853 20.7017 24.8993 21.5182 24.7954 22.5602H24.7893Z" fill="white"/>
<path d="M20.1763 23.8086V48.9263H33.5273V23.8086H20.1763ZM21.8872 25.6245H25.9444V28.5738H21.8872V25.6245ZM28.6207 37.6959V39.1461H25.0828V37.6959H28.6207ZM21.8872 29.8717H25.9444V36.7757H21.8872V29.8717ZM25.9261 46.9703H21.8688V40.0663H25.9261V46.9703ZM31.8286 46.9703H27.7714V40.0663H31.8286V46.9703ZM31.847 36.7757H27.7897V29.8717H31.847V36.7757ZM31.847 28.5738H27.7897V25.6245H31.847V28.5738ZM32.5374 38.6221C32.2441 38.6221 32.0058 38.3844 32.0058 38.0919C32.0058 37.7995 32.2441 37.5618 32.5374 37.5618C32.8307 37.5618 33.069 37.7995 33.069 38.0919C33.069 38.3844 32.8307 38.6221 32.5374 38.6221Z" fill="white"/>
<path d="M44.6666 51.4243H9.03125V48.7188H44.6727V51.4243H44.6666ZM9.44675 51.0099H44.2511V49.1392H9.44675V51.0099Z" fill="white"/>
<path d="M46.9578 53.7134H6.73975V51.0078H46.9517V53.7134H46.9578ZM7.16136 53.2929H46.5362V51.4222H7.16136V53.2929Z" fill="white"/>
<path d="M49.133 55.9985H4.56445V53.293H49.1269V55.9985H49.133ZM4.98606 55.5842H48.7114V53.7134H4.98606V55.5842Z" fill="white"/>
<path d="M53.4896 56.0003H0.20775C0.0916546 56.0003 0 55.9089 0 55.7931C0 55.6773 0.0916546 55.5859 0.20775 55.5859H53.4835C53.5996 55.5859 53.6913 55.6773 53.6913 55.7931C53.6913 55.9089 53.5996 56.0003 53.4835 56.0003H53.4896Z" fill="white"/>
<path d="M42.5707 46.4141H36.7598V46.8345H42.5707V46.4141Z" fill="white"/>
<path d="M16.9379 46.3984H11.127V46.8189H16.9379V46.3984Z" fill="white"/>
<path d="M52.1393 55.7931H51.7238V48.9378H46.9577V51.2168H46.5361V48.5234H52.1393V55.7931Z" fill="white"/>
<path d="M51.5527 48.9378H46.9516C46.4139 48.9378 45.9801 48.499 45.9801 47.9689C45.9801 47.4387 46.42 47 46.9516 47H51.5527C52.0904 47 52.5242 47.4387 52.5242 47.9689C52.5242 48.499 52.0843 48.9378 51.5527 48.9378ZM46.9516 47.4144C46.6461 47.4144 46.3956 47.6642 46.3956 47.9689C46.3956 48.2736 46.6461 48.5234 46.9516 48.5234H51.5527C51.8582 48.5234 52.1087 48.2736 52.1087 47.9689C52.1087 47.6642 51.8582 47.4144 51.5527 47.4144H46.9516Z" fill="white"/>
<path d="M49.335 33.4728C49.1211 35.7396 49.2616 38.0674 49.2616 40.3403C49.2616 42.6254 49.2189 44.9226 49.2739 47.2077C49.2739 47.354 49.4999 47.3601 49.506 47.2077C49.561 44.9226 49.5122 42.6254 49.5183 40.3403C49.5183 38.0674 49.6588 35.7335 49.4449 33.4728C49.4388 33.3997 49.335 33.3997 49.3288 33.4728H49.335Z" fill="white"/>
<path d="M46.9884 35.7866C47.6789 36.9443 48.4854 38.0717 49.292 39.1502C49.3653 39.2477 49.5364 39.1624 49.4631 39.0527C48.7237 37.9193 47.9294 36.7737 47.08 35.7195C47.0373 35.6647 46.9578 35.7317 46.9884 35.7927V35.7866Z" fill="white"/>
<path d="M49.4814 35.7317C48.7176 35.3479 48.2533 34.4643 48.3816 33.6356C48.5099 32.8007 49.1576 32.1122 49.292 31.2773C49.7197 31.972 50.1536 32.685 50.2819 33.4832C50.4102 34.2815 50.1719 35.1955 49.4814 35.6343" fill="white"/>
<path d="M48.2227 37.311C47.3672 37.4024 46.4812 36.9088 46.1268 36.1471C45.7663 35.3793 45.9191 34.4592 45.5708 33.6914C46.3163 34.0387 47.08 34.4044 47.6361 35.0015C48.1921 35.5987 48.4976 36.4945 48.1738 37.2318" fill="white"/>
<path d="M51.5527 36.7368C50.7583 37.8215 50.019 38.9975 49.3346 40.1614C49.2674 40.2711 49.4324 40.3686 49.5057 40.2589C50.2634 39.1438 51.0088 37.9799 51.6504 36.7917C51.6871 36.7246 51.5954 36.6759 51.5465 36.7307L51.5527 36.7368Z" fill="white"/>
<path d="M50.6239 38.4561C50.1962 37.731 50.2939 36.7378 50.8683 36.1101C51.4365 35.4764 52.3653 35.2448 52.9397 34.6172C52.9152 35.4276 52.8786 36.2564 52.5486 36.9937C52.2126 37.731 51.5038 38.3708 50.6789 38.3708" fill="white"/>
<path d="M46.9883 39.6733C47.6787 40.825 48.4853 41.9584 49.2919 43.0369C49.3652 43.1344 49.5363 43.0491 49.4629 42.9394C48.7236 41.806 47.9293 40.6604 47.0799 39.6062C47.0372 39.5514 46.9577 39.6184 46.9883 39.6794V39.6733Z" fill="white"/>
<path d="M48.2227 41.1977C47.3672 41.2891 46.4812 40.7955 46.1268 40.0338C45.7663 39.266 45.9191 38.3459 45.5708 37.5781C46.3163 37.9255 47.08 38.2911 47.6361 38.8882C48.1921 39.4854 48.4976 40.3812 48.1738 41.1185" fill="white"/>
<path d="M51.5527 40.6196C50.7583 41.7043 50.019 42.8803 49.3346 44.0442C49.2674 44.1539 49.4324 44.2514 49.5057 44.1417C50.2634 43.0266 51.0088 41.8627 51.6504 40.6745C51.6871 40.6074 51.5954 40.5587 51.5465 40.6135L51.5527 40.6196Z" fill="white"/>
<path d="M50.6239 42.339C50.1962 41.6138 50.2939 40.6206 50.8683 39.9929C51.4365 39.3592 52.3653 39.1276 52.9397 38.5C52.9152 39.3104 52.8786 40.1392 52.5486 40.8765C52.2126 41.6138 51.5038 42.2536 50.6789 42.2536" fill="white"/>
<path d="M46.9883 43.728C47.6787 44.8797 48.4853 46.0131 49.2919 47.0916C49.3652 47.1891 49.5363 47.1038 49.4629 46.9941C48.7236 45.8607 47.9293 44.7151 47.0799 43.6609C47.0372 43.6061 46.9577 43.6731 46.9883 43.7341V43.728Z" fill="white"/>
<path d="M48.2227 45.2563C47.3672 45.3477 46.4812 44.8541 46.1268 44.0924C45.7663 43.3246 45.9191 42.4045 45.5708 41.6367C46.3163 41.9841 47.08 42.3497 47.6361 42.9468C48.1921 43.544 48.4976 44.4398 48.1738 45.1771" fill="white"/>
<path d="M50.9846 44.6048C50.3919 45.4152 49.8419 46.2927 49.3287 47.158C49.2798 47.2433 49.402 47.3103 49.457 47.2311C50.0191 46.4024 50.5813 45.531 51.0579 44.6474C51.0823 44.5987 51.0151 44.5621 50.9846 44.6048Z" fill="white"/>
<path d="M50.2941 45.8835C49.9763 45.3412 50.0496 44.6039 50.4774 44.1347C50.9051 43.6655 51.5955 43.4887 52.0233 43.0195C52.0049 43.6228 51.9805 44.2382 51.73 44.7928C51.4795 45.3412 50.9479 45.8165 50.3368 45.8226" fill="white"/>
<path d="M1.97361 55.7931H1.55811V48.5234H7.16126V51.2168H6.73965V48.9378H1.97361V55.7931Z" fill="white"/>
<path d="M6.73971 48.9378H2.14476C1.60705 48.9378 1.17322 48.499 1.17322 47.9689C1.17322 47.4387 1.61316 47 2.14476 47H6.74582C7.28352 47 7.71736 47.4387 7.71736 47.9689C7.71736 48.499 7.27741 48.9378 6.74582 48.9378H6.73971ZM2.14476 47.4144C1.83924 47.4144 1.58872 47.6642 1.58872 47.9689C1.58872 48.2736 1.83924 48.5234 2.14476 48.5234H6.74582C7.05133 48.5234 7.30186 48.2736 7.30186 47.9689C7.30186 47.6642 7.05133 47.4144 6.74582 47.4144H2.14476Z" fill="white"/>
<path d="M4.52197 33.4728C4.30811 35.7396 4.44865 38.0674 4.44865 40.3403C4.44865 42.6254 4.40587 44.9226 4.46087 47.2077C4.46087 47.354 4.68695 47.3601 4.69306 47.2077C4.74805 44.9226 4.69917 42.6254 4.70528 40.3403C4.70528 38.0674 4.84581 35.7335 4.63195 33.4728C4.62584 33.3997 4.52197 33.3997 4.51586 33.4728H4.52197Z" fill="white"/>
<path d="M2.1754 35.7866C2.86587 36.9443 3.67243 38.0717 4.47899 39.1502C4.55231 39.2477 4.7234 39.1624 4.65008 39.0527C3.91073 37.9193 3.11639 36.7737 2.26706 35.7195C2.22429 35.6647 2.14485 35.7317 2.1754 35.7927V35.7866Z" fill="white"/>
<path d="M4.66844 35.7317C3.90465 35.3479 3.44027 34.4643 3.56859 33.6356C3.6969 32.8007 4.34459 32.1122 4.47902 31.2773C4.90674 31.972 5.34057 32.685 5.46889 33.4832C5.59721 34.2815 5.35891 35.1955 4.66844 35.6343" fill="white"/>
<path d="M3.40969 37.311C2.55424 37.4024 1.66825 36.9088 1.31385 36.1471C0.953342 35.3793 1.1061 34.4592 0.757812 33.6914C1.50327 34.0387 2.26706 34.4044 2.8231 35.0015C3.37913 35.5987 3.68465 36.4945 3.3608 37.2318" fill="white"/>
<path d="M6.73966 36.7368C5.94532 37.8215 5.20598 38.9975 4.52162 40.1614C4.45441 40.2711 4.61939 40.3686 4.69271 40.2589C5.45039 39.1438 6.19585 37.9799 6.83743 36.7917C6.87409 36.7246 6.78244 36.6759 6.73355 36.7307L6.73966 36.7368Z" fill="white"/>
<path d="M5.81724 38.4561C5.38951 37.731 5.48728 36.7378 6.06165 36.1101C6.62991 35.4764 7.55867 35.2448 8.13304 34.6172C8.1086 35.4276 8.07194 36.2564 7.74198 36.9937C7.40592 37.731 6.69712 38.3708 5.87223 38.3708" fill="white"/>
<path d="M2.17528 39.6733C2.86575 40.825 3.67231 41.9584 4.47887 43.0369C4.55219 43.1344 4.72328 43.0491 4.64996 42.9394C3.91061 41.806 3.11627 40.6604 2.26694 39.6062C2.22416 39.5514 2.14473 39.6184 2.17528 39.6794V39.6733Z" fill="white"/>
<path d="M3.40969 41.1977C2.55424 41.2891 1.66825 40.7955 1.31385 40.0338C0.953342 39.266 1.1061 38.3459 0.757812 37.5781C1.50327 37.9255 2.26706 38.2911 2.8231 38.8882C3.37913 39.4854 3.68465 40.3812 3.3608 41.1185" fill="white"/>
<path d="M6.73966 40.6196C5.94532 41.7043 5.20598 42.8803 4.52162 44.0442C4.45441 44.1539 4.61939 44.2514 4.69271 44.1417C5.45039 43.0266 6.19585 41.8627 6.83743 40.6745C6.87409 40.6074 6.78244 40.5587 6.73355 40.6135L6.73966 40.6196Z" fill="white"/>
<path d="M5.81724 42.339C5.38951 41.6138 5.48728 40.6206 6.06165 39.9929C6.62991 39.3592 7.55867 39.1276 8.13304 38.5C8.1086 39.3104 8.07194 40.1392 7.74198 40.8765C7.40592 41.6138 6.69712 42.2536 5.87223 42.2536" fill="white"/>
<path d="M2.17528 43.728C2.86575 44.8797 3.67231 46.0131 4.47887 47.0916C4.55219 47.1891 4.72328 47.1038 4.64996 46.9941C3.91061 45.8607 3.11627 44.7151 2.26694 43.6609C2.22416 43.6061 2.14473 43.6731 2.17528 43.7341V43.728Z" fill="white"/>
<path d="M3.40969 45.2563C2.55424 45.3477 1.66825 44.8541 1.31385 44.0924C0.953342 43.3246 1.1061 42.4045 0.757812 41.6367C1.50327 41.9841 2.26706 42.3497 2.8231 42.9468C3.37913 43.544 3.68465 44.4398 3.3608 45.1771" fill="white"/>
<path d="M6.17159 44.6048C5.57889 45.4152 5.02896 46.2927 4.51569 47.158C4.46681 47.2433 4.58902 47.3103 4.64401 47.2311C5.20616 46.4024 5.76831 45.531 6.24491 44.6474C6.26935 44.5987 6.20214 44.5621 6.17159 44.6048Z" fill="white"/>
<path d="M5.48106 45.8835C5.16333 45.3412 5.23665 44.6039 5.66437 44.1347C6.09209 43.6655 6.78256 43.4887 7.21028 43.0195C7.19195 43.6228 7.16751 44.2382 6.91699 44.7928C6.66646 45.3412 6.13487 45.8165 5.52384 45.8226" fill="white"/>
<path d="M27.0566 16.3047H26.6411V20.491H27.0566V16.3047Z" fill="white"/>
<path d="M31.6937 18.2045L28.5996 21.2891L28.8934 21.5821L31.9875 18.4975L31.6937 18.2045Z" fill="white"/>
<path d="M22.0555 18.2226L21.7617 18.5156L24.8467 21.5921L25.1405 21.2991L22.0555 18.2226Z" fill="white"/>
<path d="M78.157 13.2849L78.1448 13.3458L77.6804 15.1922L77.6499 15.2044C77.3199 15.3263 76.9472 15.4481 76.7455 15.4969C76.1284 15.6492 75.4685 15.8016 74.8086 15.8259C74.6741 15.8259 74.5397 15.832 74.3931 15.832C73.3421 15.832 71.9856 15.6797 70.843 15.0703C70.2747 14.7656 69.7492 14.3147 69.3215 13.7785C68.5394 12.7913 68.0995 11.3715 68.1483 9.97C68.2156 7.97131 69.2787 6.16151 70.9957 5.13779C71.9551 4.565 73.0855 4.44922 73.8615 4.44922C74.0753 4.44922 74.3014 4.46141 74.5275 4.47969C74.9919 4.52234 75.4563 4.59546 75.9084 4.70515C76.1528 4.7539 76.4034 4.82702 76.6539 4.90014L76.715 4.91842C76.8128 4.9428 76.9044 4.97327 77.0083 4.99764C77.2771 5.07076 77.4604 5.05248 77.5521 4.9428L77.5704 4.91842H77.8026V7.63007H77.5827L77.5704 7.58741C77.5338 7.48382 77.4849 7.38023 77.436 7.27055C77.0938 6.53322 76.66 5.74106 75.994 5.35716C75.3952 5.01592 74.7047 4.82093 74.0387 4.82093C72.896 4.82093 71.9551 5.19264 71.234 5.93605C70.3358 6.85618 69.847 8.32474 69.8959 9.97C69.9203 10.9998 70.1464 12.0845 70.5069 12.8584C70.9102 13.7358 71.454 14.3939 72.1139 14.8083C72.3461 14.9546 72.5844 15.0703 72.8288 15.1678C73.6965 15.4908 74.7658 15.5395 75.6885 15.2897C75.994 15.2044 76.2995 15.0581 76.6294 14.8388C76.9044 14.656 77.1733 14.4 77.4299 14.0771C77.5643 13.9125 77.6865 13.7236 77.8087 13.5104L77.9554 13.2301L78.1692 13.291L78.157 13.2849Z" fill="white"/>
<path d="M88.9663 6.18074V14.1024C88.9663 14.6874 89.0641 15.0591 89.2841 15.2724C89.4307 15.4125 89.614 15.4734 89.8584 15.4734H89.9745V15.6928H86.3389V15.4734H86.4489C86.6994 15.4734 86.8888 15.4125 87.0293 15.2724C87.2493 15.0591 87.3471 14.6874 87.3471 14.1024V9.66017H81.3712V14.1024C81.3712 14.6874 81.4751 15.0591 81.6889 15.2724C81.8295 15.4125 82.0189 15.4734 82.2633 15.4734H82.3794V15.6928H78.7438V15.4734H78.8232C79.0921 15.4734 79.2937 15.4064 79.4342 15.2724C79.6542 15.0591 79.752 14.6874 79.752 14.1024V6.17464C79.752 5.58966 79.6481 5.21795 79.4342 5.00468C79.2876 4.87062 79.1043 4.80359 78.8599 4.80359H78.7499V4.58422H82.3855V4.80359H82.2633C82.0311 4.80359 81.8356 4.87062 81.6951 5.00468C81.4751 5.21795 81.3773 5.58966 81.3773 6.17464V9.28846H87.3532V6.16855C87.3532 5.58357 87.2554 5.21186 87.0355 4.99858C86.8888 4.86452 86.7055 4.79749 86.4611 4.79749H86.345V4.57812H89.9806V4.79749H89.8706C89.6262 4.79749 89.4429 4.86452 89.2963 4.99858C89.0763 5.21186 88.9785 5.58357 88.9724 6.17464L88.9663 6.18074Z" fill="white"/>
<path d="M98.5597 15.6963H90.6346V15.4769H90.7446C90.989 15.4769 91.1785 15.4099 91.3251 15.2758C91.5451 15.0625 91.6428 14.6908 91.6428 14.1058V6.18417C91.6428 5.59919 91.539 5.22748 91.319 5.01421C91.1724 4.87405 90.989 4.81312 90.7446 4.81312H90.6285V4.59375H98.1992V6.50713H97.9792L97.9609 6.47057C97.5271 5.41029 96.7205 4.95327 95.2601 4.95327H93.256V9.49299H94.7897C95.9934 9.49299 96.5861 9.24315 96.8977 8.59114L96.9466 8.48145H97.1727V10.992H96.9527L96.8977 10.8701C96.5861 10.1328 95.9934 9.85251 94.7897 9.85251H93.256V15.3428H95.6023C96.9222 15.3428 97.6737 14.965 98.1259 14.0449C98.1259 14.0388 98.3275 13.5879 98.3275 13.5879H98.5475V15.7023L98.5597 15.6963Z" fill="white"/>
<path d="M107.358 15.6984H103.057H99.421V15.4791H99.5004C99.7693 15.4791 99.9709 15.412 100.111 15.278C100.331 15.0647 100.429 14.693 100.429 14.108V6.18027C100.429 5.59528 100.325 5.22358 100.111 5.0103C99.9709 4.87624 99.7815 4.80921 99.5371 4.80921H99.4271V4.58984H103.063V4.80921H102.941C102.708 4.80921 102.513 4.87624 102.372 5.0103C102.152 5.22358 102.055 5.59528 102.055 6.18027V15.3328H104.444C105.867 15.3328 106.625 14.8941 107.071 13.8094L107.169 13.584H107.371V15.7045L107.358 15.6984Z" fill="white"/>
<path d="M116.622 12.6207C116.622 13.0046 116.542 13.3824 116.371 13.7724C116.004 14.6133 115.173 15.113 114.709 15.3384C114.025 15.6675 113.243 15.8381 112.436 15.8381C111.953 15.8381 111.464 15.7772 110.988 15.6553C110.181 15.4481 109.485 15.1556 109.277 15.0642C109.24 15.046 109.155 15.0277 109.13 15.0216C108.904 14.9972 108.794 15.1252 108.794 15.1252H108.513V12.2429H108.727L108.739 12.2856C109.191 13.7846 109.882 14.7291 110.86 15.1678C111.202 15.3141 111.574 15.4116 111.941 15.4481C113.023 15.5578 114.355 15.2166 114.911 14.2294C115.503 13.1509 114.911 12.1149 114.061 11.5604C113.609 11.2618 113.096 11.0851 112.65 10.9328L112.155 10.7561C111 10.3539 109.693 9.89079 108.953 8.94628C108.269 8.06271 108.336 6.65509 109.106 5.74106C109.35 5.44857 109.668 5.18045 110.004 4.99155C110.627 4.63203 111.397 4.44922 112.283 4.44922H112.296C113.139 4.44922 114.055 4.61984 114.88 4.93061C114.96 4.95499 115.235 5.0342 115.363 4.88186L115.381 4.85749H115.662V7.48991H115.442L115.43 7.44726C115.277 7.00243 114.789 6.05792 114.367 5.6009C114.049 5.24748 113.554 4.99155 112.98 4.88186C112.43 4.78437 111.947 4.78437 111.501 4.89405C110.731 5.08295 109.906 5.73496 109.906 6.73431C109.906 8.23333 111.715 8.84878 112.491 9.1169L112.766 9.2083C113.86 9.57392 114.996 9.95172 115.833 10.7561C116.359 11.2618 116.64 11.9017 116.64 12.6085L116.622 12.6207Z" fill="white"/>
<path d="M125.31 15.6963H117.385V15.4769H117.495C117.74 15.4769 117.929 15.4099 118.076 15.2758C118.296 15.0625 118.393 14.6908 118.393 14.1058V6.18417C118.393 5.59919 118.289 5.22748 118.069 5.01421C117.923 4.87405 117.74 4.81312 117.495 4.81312H117.379V4.59375H124.95V6.50713H124.73L124.711 6.47057C124.278 5.41029 123.471 4.95327 122.011 4.95327H120.006V9.49299H121.54C122.744 9.49299 123.337 9.24315 123.648 8.59114L123.697 8.48145H123.923V10.992H123.703L123.648 10.8701C123.337 10.1328 122.744 9.85251 121.54 9.85251H120.006V15.3428H122.353C123.673 15.3428 124.424 14.965 124.876 14.0449C124.876 14.0388 125.078 13.5879 125.078 13.5879H125.298V15.7023L125.31 15.6963Z" fill="white"/>
<path d="M137.402 15.6967H133.327V15.4774C133.327 15.4774 133.608 15.4774 133.669 15.4713C133.889 15.4408 134.042 15.3677 134.14 15.2336C134.28 15.0325 134.268 14.7278 134.109 14.283L132.924 11.4617H128.921L128.011 13.96C127.815 14.5633 127.803 14.9594 127.987 15.2031C128.127 15.392 128.371 15.4774 128.732 15.4774H128.848V15.6967H125.952V15.4774H126.05C126.654 15.4774 127.088 15.0813 127.449 14.1794L131.017 4.58203H131.677L131.695 4.61859L135.863 14.1855C136.205 14.9167 136.565 15.3006 137.036 15.4286C137.066 15.4347 137.097 15.4408 137.134 15.4469C137.195 15.453 137.415 15.4774 137.415 15.4774V15.6967H137.402ZM132.759 11.0961L130.767 6.37354L129.044 11.0961H132.759Z" fill="white"/>
<path d="M76.9717 25.3132C76.9717 27.2205 75.3525 28.36 72.6273 28.36H70.7637V31.9552C70.7637 32.5402 70.8675 32.9119 71.0875 33.1313C71.2342 33.2653 71.4236 33.3324 71.6619 33.3324H71.778V33.5517H68.1362V33.3324H68.2157C68.4662 33.3324 68.68 33.2775 68.8328 33.1313C69.0528 32.918 69.1505 32.5463 69.1505 31.9613V24.0396C69.1505 23.4547 69.0528 23.083 68.8328 22.8697C68.6923 22.7356 68.5028 22.6686 68.2584 22.6686H68.1423V22.4492H73.0672C75.5541 22.4492 76.9778 23.4973 76.9778 25.3254L76.9717 25.3132ZM75.267 25.3132C75.267 23.6923 74.4848 22.8026 73.0672 22.8026H70.7698V28.0066H72.6334C74.2832 28.0066 75.267 27.0011 75.267 25.3193V25.3132Z" fill="white"/>
<path d="M88.8684 27.9408C88.8684 29.586 88.3185 30.9754 87.237 32.06C86.1494 33.1447 84.8234 33.6992 83.2836 33.6992C81.7438 33.6992 80.3996 33.163 79.3425 32.1027C78.2854 31.0424 77.7477 29.647 77.7477 27.9652C77.7477 26.2833 78.3709 24.8209 79.593 23.7362C80.6562 22.7917 81.9455 22.3164 83.4242 22.3164C84.9029 22.3164 86.1799 22.8587 87.2553 23.9251C88.3307 24.9915 88.8745 26.3443 88.8745 27.9469L88.8684 27.9408ZM87.1087 28.1541C87.1087 26.2346 86.7054 24.7782 85.9111 23.8215C85.2695 23.0659 84.3774 22.6759 83.2531 22.6759C82.1899 22.6759 81.3283 23.0598 80.6867 23.8215C79.8985 24.7538 79.4952 26.131 79.4952 27.9225C79.4952 29.714 79.9107 31.1948 80.7295 32.1819C81.365 32.9436 82.2143 33.3336 83.2592 33.3336C84.3651 33.3336 85.3 32.907 86.021 32.0783C86.7421 31.2496 87.1087 29.9273 87.1087 28.1541Z" fill="white"/>
<path d="M99.7329 33.3345V33.5539C99.7329 33.5539 98.9385 33.5539 98.6147 33.5539H98.3642C96.7388 33.5539 96.2194 32.4997 95.4984 31.0494L95.4862 31.0251C95.309 30.6716 95.1501 30.3548 94.9668 30.0196C94.7163 29.5565 94.3986 29.1604 94.0258 28.8436C93.867 28.7095 93.6959 28.5876 93.5126 28.4841C93.5126 28.4841 93.5003 28.484 93.4942 28.4719L93.4392 28.4353C93.4392 28.4353 93.372 28.3926 93.3354 28.3744L93.317 28.3622H92.0828V31.9574C92.0828 32.5424 92.1866 32.9141 92.4005 33.1335C92.541 33.2736 92.7305 33.3345 92.9749 33.3345H93.091V33.5539H89.4492V33.3345H89.5103C89.7853 33.3345 89.9869 33.2736 90.1397 33.1335C90.3597 32.9202 90.4574 32.5485 90.4574 31.9635V24.0418C90.4574 23.4508 90.3535 23.079 90.1397 22.8719C89.993 22.7378 89.8097 22.6647 89.5653 22.6647H89.4492V22.4453H94.368C96.8549 22.4453 98.2786 23.4934 98.2786 25.3215C98.2786 26.985 97.0321 28.0819 94.8568 28.3195L94.6308 28.3439L94.8263 28.4658C94.8568 28.484 94.8874 28.5084 94.9179 28.5267L94.9729 28.5633C95.0157 28.5937 95.0585 28.6181 95.0829 28.6364C95.4984 28.8862 95.865 29.2092 96.2133 29.6296C96.2989 29.7271 96.3783 29.8307 96.4577 29.9404C96.5311 30.044 96.6044 30.1476 96.6777 30.2451L96.9771 30.6595C97.3254 31.1591 97.692 31.671 98.0953 32.1463L98.1259 32.1829C98.4803 32.6033 99.0119 33.2127 99.6779 33.3345H99.7268H99.7329ZM96.5738 25.3215C96.5738 23.7006 95.7917 22.8109 94.368 22.8109H92.0767V28.0087H93.9403C95.5901 28.0087 96.5738 27.0033 96.5738 25.3215Z" fill="white"/>
<path d="M109.961 22.438V24.6256H109.741L109.643 24.4001C109.185 23.2728 108.403 22.7975 107.016 22.7975H105.598V31.9561C105.598 32.5472 105.696 32.9189 105.916 33.1261C106.057 33.2663 106.24 33.3272 106.491 33.3272H106.601V33.5466H102.959V33.3272H103.057C103.313 33.3272 103.503 33.2602 103.643 33.1261C103.863 32.9128 103.967 32.5411 103.967 31.95V22.7914H102.543C101.162 22.7914 100.38 23.2728 99.9159 24.3879L99.8181 24.6134H99.5981V22.4258H109.943L109.961 22.438Z" fill="white"/>
<path d="M118.357 33.5578H114.055H110.419V33.3384H110.499C110.768 33.3384 110.969 33.2714 111.11 33.1374C111.33 32.9241 111.428 32.5524 111.428 31.9674V24.0396C111.428 23.4547 111.324 23.083 111.11 22.8697C110.963 22.7356 110.78 22.6686 110.536 22.6686H110.426V22.4492H114.061V22.6686H113.939C113.707 22.6686 113.511 22.7356 113.371 22.8697C113.151 23.083 113.053 23.4547 113.053 24.0396V33.1922H115.442C116.866 33.1922 117.623 32.7535 118.07 31.6688L118.167 31.4433H118.369V33.5639L118.357 33.5578Z" fill="white"/>
<path d="M130.357 33.56H126.282V33.3406C126.282 33.3406 126.563 33.3406 126.624 33.3345C126.844 33.3041 126.997 33.2309 127.095 33.0969C127.235 32.8958 127.223 32.5911 127.064 32.1463L125.879 29.325H121.876L120.966 31.8233C120.77 32.4266 120.758 32.8227 120.941 33.0664C121.082 33.2553 121.326 33.3406 121.687 33.3406H121.803V33.56H118.907V33.3406H119.004C119.609 33.3406 120.043 32.9446 120.404 32.0427L123.972 22.4453H124.632L124.65 22.4819L128.818 32.0488C129.16 32.78 129.52 33.1639 129.991 33.2919C130.021 33.298 130.052 33.3041 130.089 33.3102C130.15 33.3163 130.37 33.3406 130.37 33.3406V33.56H130.357ZM125.72 28.9593L123.722 24.2368L121.999 28.9593H125.714H125.72Z" fill="white"/>
<path d="M141.142 22.4375V22.6569H141.026C140.776 22.6569 140.586 22.7178 140.446 22.8519C140.244 23.0408 140.146 23.5282 140.134 24.0218V33.5461H139.523L138.863 32.6077L132.282 23.6562V31.9496C132.282 32.5346 132.386 32.8941 132.606 33.1074C132.747 33.2475 132.936 33.3206 133.181 33.3206H133.291V33.54H130.828V33.3206H130.889C131.17 33.3206 131.366 33.2597 131.519 33.1195C131.739 32.9063 131.836 32.5346 131.836 31.9496V24.0279C131.836 23.4429 131.739 23.0712 131.519 22.858C131.372 22.7178 131.183 22.6569 130.944 22.6569H130.834V22.4375H133.291L133.309 22.4619L139.7 31.2001V24.0279C139.7 23.4429 139.59 23.0712 139.376 22.858C139.23 22.7178 139.046 22.6569 138.802 22.6569H138.686V22.4375H141.155H141.142Z" fill="white"/>
<path d="M152 28.0022C152 31.5365 150.033 33.5595 146.599 33.5595H141.79V33.3402H141.906C142.151 33.3402 142.334 33.2731 142.48 33.1391C142.7 32.9258 142.798 32.5541 142.798 31.9691V24.0475C142.798 23.4564 142.694 23.0847 142.48 22.8775C142.34 22.7434 142.151 22.6764 141.906 22.6764H141.796V22.457H145.988C149.813 22.457 152.006 24.4801 152.006 28.0144L152 28.0022ZM150.375 28.0022C150.375 24.6995 148.774 22.8044 145.982 22.8044H144.417V33.2H146.599C149 33.2 150.375 31.3049 150.381 28.0022H150.375Z" fill="white"/>
<path d="M78.3646 41.8956V49.8172C78.3646 50.4022 78.4624 50.7739 78.6824 50.9872C78.829 51.1274 79.0123 51.1883 79.2567 51.1883H79.3728V51.4077H75.7372V51.1883H75.8472C76.0977 51.1883 76.2871 51.1274 76.4277 50.9872C76.6476 50.7739 76.7454 50.4022 76.7454 49.8172V45.375H70.7695V49.8172C70.7695 50.4022 70.8734 50.7739 71.0873 50.9872C71.2278 51.1274 71.4172 51.1883 71.6616 51.1883H71.7777V51.4077H68.1421V51.1883H68.2215C68.4904 51.1883 68.692 51.1213 68.8326 50.9872C69.0525 50.7739 69.1503 50.4022 69.1503 49.8172V41.8895C69.1503 41.3045 69.0464 40.9328 68.8326 40.7195C68.6859 40.5855 68.5026 40.5184 68.2582 40.5184H68.1482V40.2991H71.7838V40.5184H71.6616C71.4294 40.5184 71.2339 40.5855 71.0934 40.7195C70.8734 40.9328 70.7756 41.3045 70.7756 41.8895V45.0033H76.7515V41.8834C76.7515 41.2984 76.6537 40.9267 76.4338 40.7134C76.2871 40.5794 76.1038 40.5123 75.8594 40.5123H75.7433V40.293H79.3789V40.5123H79.269C79.0245 40.5123 78.8412 40.5794 78.6946 40.7134C78.4746 40.9267 78.3769 41.2984 78.3707 41.8895L78.3646 41.8956Z" fill="white"/>
<path d="M91.1291 45.7963C91.1291 47.4415 90.5791 48.8309 89.4976 49.9155C88.41 51.0002 87.084 51.5547 85.5442 51.5547C84.0044 51.5547 82.6602 51.0185 81.6031 49.9582C80.5399 48.8979 80.0083 47.5025 80.0083 45.8206C80.0083 44.1388 80.6316 42.6763 81.8536 41.5917C82.9168 40.6472 84.2061 40.1719 85.6848 40.1719C87.1635 40.1719 88.4405 40.7142 89.5159 41.7806C90.5914 42.847 91.1352 44.1997 91.1352 45.8023L91.1291 45.7963ZM89.3693 46.0095C89.3693 44.09 88.966 42.6337 88.1717 41.677C87.5301 40.9214 86.638 40.5314 85.5137 40.5314C84.4505 40.5314 83.5889 40.9153 82.9474 41.677C82.153 42.6093 81.7558 43.9865 81.7558 45.778C81.7558 47.5695 82.1714 49.0502 82.9901 50.0374C83.6256 50.7991 84.4749 51.1891 85.5198 51.1891C86.6319 51.1891 87.5606 50.7625 88.2817 49.9338C89.0027 49.1051 89.3632 47.7828 89.3632 46.0095H89.3693Z" fill="white"/>
<path d="M102.311 40.2991V40.5184C102.311 40.5184 102.091 40.5184 102.048 40.5184C101.828 40.5367 101.657 40.6098 101.523 40.7439C101.278 40.9815 101.162 41.3959 101.162 42.054V46.1916C101.162 47.4529 101.138 48.4035 100.936 49.086C100.734 49.7502 100.325 50.3352 99.7262 50.8166C99.1579 51.2797 98.2047 51.5478 97.1232 51.5478C96.6099 51.5478 96.0539 51.4747 95.5467 51.3467C94.6363 51.1213 93.8909 50.6155 93.4326 49.9208C93.2187 49.5918 93.0537 49.2018 92.956 48.7691C92.7605 47.9465 92.7482 47.0568 92.736 46.2708C92.7238 45.7163 92.7238 44.4366 92.7238 43.4982V41.8895C92.7238 40.9694 92.4794 40.5611 91.8989 40.5184H91.7095V40.2991H95.3512V40.5184H95.3268C95.3268 40.5184 95.2229 40.5184 95.2046 40.5184C95.0701 40.5184 94.9418 40.5489 94.8196 40.6037C94.7341 40.6464 94.6608 40.7012 94.6058 40.7744C94.5385 40.8536 94.4958 40.9511 94.4591 41.0425C94.4163 41.1643 94.3858 41.2923 94.3736 41.4203C94.3552 41.5787 94.343 41.7432 94.343 41.9017C94.343 42.0845 94.343 46.3622 94.3491 46.8192C94.3491 47.3432 94.3736 47.7759 94.4225 48.1902C94.5019 48.8423 94.6485 49.3663 94.8563 49.7319C95.064 50.1036 95.3695 50.4144 95.7667 50.6642C96.1578 50.908 96.6527 51.0299 97.221 51.0299C97.7892 51.0299 98.6508 50.9445 99.2801 50.5302C99.8606 50.1524 100.258 49.6649 100.472 49.0738C100.673 48.5193 100.673 47.5321 100.673 46.289V42.0601C100.673 41.4142 100.557 40.9998 100.313 40.7561C100.142 40.5916 99.9156 40.5123 99.6101 40.5123H99.4573V40.293H102.317L102.311 40.2991Z" fill="white"/>
<path d="M111.232 48.3356C111.232 48.7194 111.153 49.0972 110.982 49.4872C110.615 50.3282 109.784 50.8278 109.32 51.0533C108.635 51.3823 107.853 51.553 107.047 51.553C106.564 51.553 106.075 51.492 105.598 51.3702C104.792 51.163 104.095 50.8705 103.887 50.7791C103.851 50.7608 103.765 50.7425 103.741 50.7364C103.515 50.712 103.405 50.84 103.405 50.84H103.124V47.9577H103.338L103.35 48.0004C103.802 49.4994 104.492 50.4439 105.47 50.8827C105.812 51.0289 106.185 51.1264 106.552 51.163C107.633 51.2727 108.965 50.9314 109.521 49.9443C110.114 48.8657 109.521 47.8298 108.672 47.2753C108.22 46.9767 107.706 46.8 107.26 46.6476L106.765 46.4709C105.611 46.0687 104.303 45.6056 103.564 44.6611C102.879 43.7776 102.946 42.3699 103.716 41.4559C103.961 41.1634 104.279 40.8953 104.615 40.7064C105.238 40.3469 106.008 40.1641 106.894 40.1641H106.906C107.749 40.1641 108.666 40.3347 109.491 40.6455C109.57 40.6698 109.845 40.749 109.973 40.5967L109.992 40.5723H110.273V43.2048H110.053L110.041 43.1621C109.888 42.7173 109.399 41.7728 108.977 41.3157C108.66 40.9623 108.165 40.7064 107.59 40.5967C107.04 40.4992 106.558 40.4992 106.112 40.6089C105.342 40.7978 104.517 41.4498 104.517 42.4492C104.517 43.9482 106.325 44.5636 107.101 44.8317L107.376 44.9231C108.47 45.2888 109.607 45.6666 110.444 46.4709C110.969 46.9767 111.25 47.6165 111.25 48.3234L111.232 48.3356Z" fill="white"/>
<path d="M119.921 51.4111H111.996V51.1917H112.106C112.35 51.1917 112.54 51.1247 112.686 50.9906C112.906 50.7774 113.004 50.4057 113.004 49.8207V41.899C113.004 41.314 112.9 40.9423 112.68 40.729C112.54 40.5889 112.35 40.528 112.106 40.528H111.99V40.3086H119.567V42.222H119.347L119.328 42.1854C118.894 41.1251 118.088 40.6681 116.627 40.6681H114.623V45.2078H116.157C117.361 45.2078 117.953 44.958 118.265 44.306L118.314 44.1963H118.54V46.7069H118.32L118.265 46.585C117.953 45.8477 117.361 45.5674 116.157 45.5674H114.623V51.0577H116.97C118.289 51.0577 119.041 50.6799 119.493 49.7597C119.493 49.7536 119.695 49.3027 119.695 49.3027H119.915V51.4172L119.921 51.4111Z" fill="white"/>
<path d="M61.2191 0H60.9869V56H61.2191V0Z" fill="white"/>
</g>
<defs>
<clipPath id="clip0_145_2448">
<rect width="152" height="56" fill="white"/>
</clipPath>
</defs>
</svg>
